<?xml version="1.0" encoding="UTF-8" standalone="no"?>
<svg
   xmlns:dc="http://purl.org/dc/elements/1.1/"
   xmlns:cc="http://creativecommons.org/ns#"
   xmlns:rdf="http://www.w3.org/1999/02/22-rdf-syntax-ns#"
   xmlns:svg="http://www.w3.org/2000/svg"
   xmlns="http://www.w3.org/2000/svg"
   version="1.1"
   viewBox="0 0 119.66407 40"
   height="40"
   width="119.66407"
   id="livetype">
  <metadata
     id="metadata71">
    <rdf:RDF>
      <cc:Work
         rdf:about="">
        <dc:format>image/svg+xml</dc:format>
        <dc:type
           rdf:resource="http://purl.org/dc/dcmitype/StillImage" />
        <dc:title>Download_on_the_App_Store_Badge_US-UK_RGB_blk_4SVG_092917</dc:title>
      </cc:Work>
    </rdf:RDF>
  </metadata>
  <defs
     id="defs69" />
  <title
     id="title2">Download_on_the_App_Store_Badge_US-UK_RGB_blk_4SVG_092917</title>
  <g
     id="g8">
    <path
       id="path4"
       style="fill:#a6a6a6"
       d="M 110.13477,0 H 9.53468 C 9.16798,0 8.80568,0 8.43995,0.002 8.1338,0.004 7.83009,0.00981 7.521,0.0147 a 13.21476,13.21476 0 0 0 -2.0039,0.17671 6.66509,6.66509 0 0 0 -1.90088,0.627 6.43779,6.43779 0 0 0 -1.61865,1.17866 6.25844,6.25844 0 0 0 -1.17822,1.62109 6.60119,6.60119 0 0 0 -0.625,1.90332 12.993,12.993 0 0 0 -0.1792,2.002 C 0.00587,7.83008 0.00489,8.1377 0,8.44434 V 31.5586 c 0.00489,0.3105 0.00587,0.6113 0.01515,0.9219 a 12.99232,12.99232 0 0 0 0.1792,2.0019 6.58756,6.58756 0 0 0 0.625,1.9043 6.20778,6.20778 0 0 0 1.17822,1.6143 6.27445,6.27445 0 0 0 1.61865,1.1787 6.70082,6.70082 0 0 0 1.90088,0.6308 13.45514,13.45514 0 0 0 2.0039,0.1768 C 7.83009,39.9941 8.1338,39.998 8.43995,39.998 8.80567,40 9.168,40 9.53468,40 h 100.60009 c 0.3594,0 0.7246,0 1.084,-0.002 0.3047,0 0.6172,-0.0039 0.9219,-0.0107 a 13.279,13.279 0 0 0 2,-0.1768 6.80432,6.80432 0 0 0 1.9082,-0.6308 6.27742,6.27742 0 0 0 1.6172,-1.1787 6.39482,6.39482 0 0 0 1.1816,-1.6143 6.60413,6.60413 0 0 0 0.6191,-1.9043 13.50643,13.50643 0 0 0 0.1856,-2.0019 c 0.004,-0.3106 0.004,-0.6114 0.004,-0.9219 0.008,-0.3633 0.008,-0.7246 0.008,-1.0938 V 9.53613 c 0,-0.36621 0,-0.72949 -0.008,-1.09179 0,-0.30664 0,-0.61426 -0.004,-0.9209 a 13.5071,13.5071 0 0 0 -0.1856,-2.002 6.6177,6.6177 0 0 0 -0.6191,-1.90332 6.46619,6.46619 0 0 0 -2.7988,-2.7998 6.76754,6.76754 0 0 0 -1.9082,-0.627 13.04394,13.04394 0 0 0 -2,-0.17676 c -0.3047,-0.00488 -0.6172,-0.01074 -0.9219,-0.01269 -0.3594,-0.002 -0.7246,-0.002 -1.084,-0.002 z" />
    <path
       id="path6"
       d="m 8.44483,39.125 c -0.30468,0 -0.602,-0.0039 -0.90429,-0.0107 A 12.68714,12.68714 0 0 1 5.6714,38.9512 5.88381,5.88381 0 0 1 4.01466,38.4033 5.40573,5.40573 0 0 1 2.61766,37.3867 5.32082,5.32082 0 0 1 1.59715,35.9902 5.72186,5.72186 0 0 1 1.05415,34.333 12.41351,12.41351 0 0 1 0.88765,32.458 C 0.88131,32.2471 0.87301,31.5449 0.87301,31.5449 V 8.44434 c 0,0 0.00884,-0.69141 0.01469,-0.89454 A 12.37039,12.37039 0 0 1 1.05323,5.67773 5.7555,5.7555 0 0 1 1.59669,4.01563 5.37349,5.37349 0 0 1 2.61183,2.61768 5.56543,5.56543 0 0 1 4.01417,1.59521 5.82309,5.82309 0 0 1 5.66749,1.05127 12.58589,12.58589 0 0 1 7.543,0.88721 L 8.44532,0.875 h 102.76855 l 0.9131,0.0127 a 12.38493,12.38493 0 0 1 1.8584,0.16259 5.93833,5.93833 0 0 1 1.6709,0.54785 5.59374,5.59374 0 0 1 2.415,2.41993 5.76267,5.76267 0 0 1 0.5352,1.64892 12.995,12.995 0 0 1 0.1738,1.88721 c 0.003,0.2832 0.003,0.5874 0.003,0.89014 0.008,0.375 0.008,0.73193 0.008,1.09179 V 30.4648 c 0,0.3633 0,0.7178 -0.008,1.0752 0,0.3252 0,0.6231 -0.004,0.9297 a 12.73126,12.73126 0 0 1 -0.1709,1.8535 5.739,5.739 0 0 1 -0.54,1.67 5.48029,5.48029 0 0 1 -1.0156,1.3857 5.4129,5.4129 0 0 1 -1.3994,1.0225 5.86168,5.86168 0 0 1 -1.668,0.5498 12.54218,12.54218 0 0 1 -1.8692,0.1631 c -0.2929,0.0068 -0.5996,0.0107 -0.8974,0.0107 l -1.084,0.002 z" />
  </g>
  <g
     id="_Group_2"
     data-name="&lt;Group&gt;">
    <g
       id="_Group_3"
       data-name="&lt;Group&gt;">
      <path
         id="_Path_"
         data-name="&lt;Path&gt;"
         d="m 24.76888,20.30068 a 4.94881,4.94881 0 0 1 2.35656,-4.15206 5.06566,5.06566 0 0 0 -3.99116,-2.15768 c -1.67924,-0.17626 -3.30719,1.00483 -4.1629,1.00483 -0.87227,0 -2.18977,-0.98733 -3.6085,-0.95814 a 5.31529,5.31529 0 0 0 -4.47292,2.72787 c -1.934,3.34842 -0.49141,8.26947 1.3612,10.97608 0.9269,1.32535 2.01018,2.8058 3.42763,2.7533 1.38706,-0.05753 1.9051,-0.88448 3.5794,-0.88448 1.65876,0 2.14479,0.88448 3.591,0.8511 1.48838,-0.02416 2.42613,-1.33124 3.32051,-2.66914 a 10.962,10.962 0 0 0 1.51842,-3.09251 4.78205,4.78205 0 0 1 -2.91924,-4.39917 z"
         style="fill:#ffffff" />
      <path
         id="_Path_2"
         data-name="&lt;Path&gt;"
         d="m 22.03725,12.21089 a 4.87248,4.87248 0 0 0 1.11452,-3.49062 4.95746,4.95746 0 0 0 -3.20758,1.65961 4.63634,4.63634 0 0 0 -1.14371,3.36139 4.09905,4.09905 0 0 0 3.23677,-1.53038 z"
         style="fill:#ffffff" />
    </g>
  </g>
  <g
     id="_Group_4"
     data-name="&lt;Group&gt;">
    <g
       id="g61">
      <path
         d="m 37.82619,8.731 a 2.63964,2.63964 0 0 1 2.80762,2.96484 c 0,1.90625 -1.03027,3.002 -2.80762,3.002 H 35.67092 V 8.731 Z m -1.22852,5.123 h 1.125 a 1.87588,1.87588 0 0 0 1.96777,-2.146 1.881,1.881 0 0 0 -1.96777,-2.13379 h -1.125 z"
         style="fill:#ffffff"
         id="path35" />
      <path
         d="m 41.68068,12.44434 a 2.13323,2.13323 0 1 1 4.24707,0 2.13358,2.13358 0 1 1 -4.24707,0 z m 3.333,0 c 0,-0.97607 -0.43848,-1.54687 -1.208,-1.54687 -0.77246,0 -1.207,0.5708 -1.207,1.54688 0,0.98389 0.43457,1.55029 1.207,1.55029 0.76954,-10e-6 1.20801,-0.57032 1.20801,-1.5503 z"
         style="fill:#ffffff"
         id="path37" />
      <path
         d="m 51.57326,14.69775 h -0.92187 l -0.93066,-3.31641 h -0.07031 l -0.92676,3.31641 h -0.91309 l -1.24121,-4.50293 h 0.90137 l 0.80664,3.436 h 0.06641 l 0.92578,-3.436 h 0.85254 l 0.92578,3.436 h 0.07031 l 0.80273,-3.436 h 0.88867 z"
         style="fill:#ffffff"
         id="path39" />
      <path
         d="M 53.85354,10.19482 H 54.709 v 0.71533 h 0.06641 a 1.348,1.348 0 0 1 1.34375,-0.80225 1.46456,1.46456 0 0 1 1.55859,1.6748 v 2.915 h -0.88867 v -2.69184 c 0,-0.72363 -0.31445,-1.0835 -0.97168,-1.0835 a 1.03294,1.03294 0 0 0 -1.0752,1.14111 v 2.63428 h -0.88867 z"
         style="fill:#ffffff"
         id="path41" />
      <path
         d="m 59.09377,8.437 h 0.88867 v 6.26074 h -0.88867 z"
         style="fill:#ffffff"
         id="path43" />
      <path
         d="m 61.21779,12.44434 a 2.13346,2.13346 0 1 1 4.24756,0 2.1338,2.1338 0 1 1 -4.24756,0 z m 3.333,0 c 0,-0.97607 -0.43848,-1.54687 -1.208,-1.54687 -0.77246,0 -1.207,0.5708 -1.207,1.54688 0,0.98389 0.43457,1.55029 1.207,1.55029 0.76953,-10e-6 1.20801,-0.57032 1.20801,-1.5503 z"
         style="fill:#ffffff"
         id="path45" />
      <path
         d="m 66.4009,13.42432 c 0,-0.81055 0.60352,-1.27783 1.6748,-1.34424 l 1.21973,-0.07031 V 11.6211 c 0,-0.47559 -0.31445,-0.74414 -0.92187,-0.74414 -0.49609,0 -0.83984,0.18213 -0.93848,0.50049 h -0.86035 c 0.09082,-0.77344 0.81836,-1.26953 1.83984,-1.26953 1.12891,0 1.76563,0.562 1.76563,1.51318 v 3.07666 h -0.85547 v -0.63281 h -0.07031 a 1.515,1.515 0 0 1 -1.35254,0.707 1.36026,1.36026 0 0 1 -1.50098,-1.34763 z m 2.89453,-0.38477 v -0.37646 l -1.09961,0.07031 c -0.62012,0.0415 -0.90137,0.25244 -0.90137,0.64941 0,0.40527 0.35156,0.64111 0.835,0.64111 a 1.0615,1.0615 0 0 0 1.16598,-0.98437 z"
         style="fill:#ffffff"
         id="path47" />
      <path
         d="m 71.34816,12.44434 c 0,-1.42285 0.73145,-2.32422 1.86914,-2.32422 a 1.484,1.484 0 0 1 1.38086,0.79 h 0.06641 V 8.437 h 0.88867 v 6.26074 h -0.85156 v -0.71143 h -0.07031 a 1.56284,1.56284 0 0 1 -1.41406,0.78564 c -1.14551,5e-5 -1.86915,-0.90134 -1.86915,-2.32761 z m 0.918,0 c 0,0.95508 0.4502,1.52979 1.20313,1.52979 0.749,0 1.21191,-0.583 1.21191,-1.52588 0,-0.93848 -0.46777,-1.52979 -1.21191,-1.52979 -0.74808,0 -1.20316,0.57861 -1.20316,1.52588 z"
         style="fill:#ffffff"
         id="path49" />
    </g>
  </g>
  <text
     id="text138"
     y="47.852112"
     x="56.371117"
     style="font-style:normal;font-weight:normal;font-size:18.66666667px;line-height:1.25;font-family:sans-serif;letter-spacing:0px;word-spacing:0px;fill:#000000;fill-opacity:1;stroke:none;"
     xml:space="preserve"><tspan
       y="83.242737"
       x="56.371117"
       id="tspan136" /></text>
  <g
     id="text142"
     style="font-style:normal;font-weight:normal;font-size:40px;line-height:1.25;font-family:sans-serif;letter-spacing:0px;word-spacing:0px;fill:#000000;fill-opacity:1;stroke:none"
     aria-label="iOS Version">
    <path
       id="path283"
       style="font-style:normal;font-variant:normal;font-weight:bold;font-stretch:normal;font-size:13.33333302px;font-family:'Nimbus Sans L';-inkscape-font-specification:'Nimbus Sans L Bold';fill:#ffffff"
       d="m 37.684313,23.307151 h -1.866667 v 7.2 h 1.866667 z m 0,-2.52 h -1.866667 v 1.666667 h 1.866667 z" />
    <path
       id="path285"
       style="font-style:normal;font-variant:normal;font-weight:bold;font-stretch:normal;font-size:13.33333302px;font-family:'Nimbus Sans L';-inkscape-font-specification:'Nimbus Sans L Bold';fill:#ffffff"
       d="m 43.822229,20.627151 c -1.36,0 -2.48,0.453333 -3.306667,1.346667 -0.866666,0.933333 -1.36,2.293333 -1.36,3.746666 0,1.453333 0.493334,2.826667 1.36,3.746667 0.84,0.906666 1.933334,1.346666 3.32,1.346666 1.386667,0 2.48,-0.44 3.32,-1.346666 0.84,-0.893334 1.36,-2.306667 1.36,-3.68 0,-1.52 -0.493333,-2.88 -1.36,-3.813333 -0.853333,-0.92 -1.933333,-1.346667 -3.333333,-1.346667 z m 0.01333,1.706667 c 1.64,0 2.68,1.333333 2.68,3.439999 0,1.986667 -1.08,3.333334 -2.68,3.333334 -1.613333,0 -2.68,-1.346667 -2.68,-3.386667 0,-2.04 1.066667,-3.386666 2.68,-3.386666 z" />
    <path
       id="path287"
       style="font-style:normal;font-variant:normal;font-weight:bold;font-stretch:normal;font-size:13.33333302px;font-family:'Nimbus Sans L';-inkscape-font-specification:'Nimbus Sans L Bold';fill:#ffffff"
       d="m 57.080146,23.747151 c 0,-0.893334 -0.2,-1.48 -0.68,-2.013333 -0.653334,-0.72 -1.733334,-1.106667 -3.133334,-1.106667 -2.333333,0 -3.679999,1.093333 -3.679999,2.986666 0,1.506667 0.76,2.24 2.733333,2.613334 l 1.36,0.266666 c 1.333333,0.253334 1.826666,0.626667 1.826666,1.413334 0,0.813333 -0.746666,1.306666 -1.96,1.306666 -1.359999,0 -2.119999,-0.573333 -2.186666,-1.613333 h -1.946667 c 0.12,2.08 1.546667,3.213333 4.026667,3.213333 2.506666,0 3.986666,-1.173333 3.986666,-3.146666 0,-1.533334 -0.773333,-2.333334 -2.573333,-2.68 l -1.52,-0.293334 c -1.426666,-0.28 -1.84,-0.56 -1.84,-1.266666 0,-0.733333 0.653334,-1.2 1.68,-1.2 1.266667,0 1.973333,0.533333 2.04,1.52 z" />
    <path
       id="path289"
       style="font-style:normal;font-variant:normal;font-weight:bold;font-stretch:normal;font-size:13.33333302px;font-family:'Nimbus Sans L';-inkscape-font-specification:'Nimbus Sans L Bold';fill:#ffffff"
       d="m 66.884312,30.507151 3.333333,-9.72 h -2.013333 l -2.12,7.32 -2.16,-7.32 h -2.013333 l 3.28,9.72 z" />
    <path
       id="path291"
       style="font-style:normal;font-variant:normal;font-weight:bold;font-stretch:normal;font-size:13.33333302px;font-family:'Nimbus Sans L';-inkscape-font-specification:'Nimbus Sans L Bold';fill:#ffffff"
       d="m 77.483893,27.493817 c 0.01333,-0.16 0.01333,-0.226666 0.01333,-0.32 0,-0.72 -0.106667,-1.386666 -0.28,-1.893333 -0.48,-1.306667 -1.64,-2.093333 -3.093334,-2.093333 -2.066666,0 -3.333333,1.493333 -3.333333,3.906666 0,2.306667 1.253333,3.72 3.293333,3.72 1.613334,0 2.92,-0.92 3.333334,-2.333333 h -1.84 c -0.226667,0.573333 -0.746667,0.906667 -1.426667,0.906667 -0.533333,0 -0.96,-0.226667 -1.226667,-0.626667 -0.173333,-0.266667 -0.24,-0.586667 -0.266666,-1.266667 z m -4.8,-1.24 c 0.12,-1.093333 0.586667,-1.64 1.413334,-1.64 0.466666,0 0.893333,0.226667 1.16,0.6 0.173333,0.266667 0.253333,0.546667 0.293333,1.04 z" />
    <path
       id="path293"
       style="font-style:normal;font-variant:normal;font-weight:bold;font-stretch:normal;font-size:13.33333302px;font-family:'Nimbus Sans L';-inkscape-font-specification:'Nimbus Sans L Bold';fill:#ffffff"
       d="m 78.759102,23.307151 v 7.2 h 1.866666 v -3.826667 c 0,-1.093333 0.546667,-1.64 1.64,-1.64 0.2,0 0.333334,0.01333 0.586667,0.05333 v -1.893333 c -0.106667,-0.01333 -0.173333,-0.01333 -0.226667,-0.01333 -0.853333,0 -1.6,0.56 -2,1.533333 v -1.413333 z" />
    <path
       id="path295"
       style="font-style:normal;font-variant:normal;font-weight:bold;font-stretch:normal;font-size:13.33333302px;font-family:'Nimbus Sans L';-inkscape-font-specification:'Nimbus Sans L Bold';fill:#ffffff"
       d="m 89.834728,25.627151 c -0.02667,-1.52 -1.2,-2.44 -3.133333,-2.44 -1.826667,0 -2.96,0.92 -2.96,2.4 0,0.48 0.146666,0.893333 0.4,1.173333 0.253333,0.253333 0.48,0.373333 1.173333,0.6 l 2.226667,0.693333 c 0.466666,0.146667 0.626666,0.293334 0.626666,0.586667 0,0.44 -0.52,0.706667 -1.386666,0.706667 -0.48,0 -0.866667,-0.09333 -1.106667,-0.253334 -0.2,-0.146666 -0.28,-0.293333 -0.36,-0.68 h -1.826667 c 0.05333,1.573334 1.213334,2.4 3.4,2.4 1,0 1.76,-0.213333 2.293334,-0.64 0.533333,-0.426666 0.853333,-1.093333 0.853333,-1.8 0,-0.933333 -0.466667,-1.533333 -1.413333,-1.813333 l -2.36,-0.68 c -0.52,-0.16 -0.653334,-0.266667 -0.653334,-0.56 0,-0.4 0.426667,-0.666667 1.08,-0.666667 0.893334,0 1.333334,0.32 1.346667,0.973334 z" />
    <path
       id="path297"
       style="font-style:normal;font-variant:normal;font-weight:bold;font-stretch:normal;font-size:13.33333302px;font-family:'Nimbus Sans L';-inkscape-font-specification:'Nimbus Sans L Bold';fill:#ffffff"
       d="m 93.28327,23.307151 h -1.866667 v 7.2 h 1.866667 z m 0,-2.52 h -1.866667 v 1.666667 h 1.866667 z" />
    <path
       id="path299"
       style="font-style:normal;font-variant:normal;font-weight:bold;font-stretch:normal;font-size:13.33333302px;font-family:'Nimbus Sans L';-inkscape-font-specification:'Nimbus Sans L Bold';fill:#ffffff"
       d="m 98.234521,23.187151 c -2.2,0 -3.546667,1.453333 -3.546667,3.813333 0,2.373333 1.346667,3.813333 3.56,3.813333 2.186666,0 3.559996,-1.453333 3.559996,-3.76 0,-2.44 -1.32,-3.866666 -3.573329,-3.866666 z m 0.01333,1.506666 c 1.026667,0 1.693333,0.92 1.693333,2.333334 0,1.346666 -0.693333,2.28 -1.693333,2.28 -1.013333,0 -1.693333,-0.933334 -1.693333,-2.306667 0,-1.373333 0.68,-2.306667 1.693333,-2.306667 z" />
    <path
       id="path301"
       style="font-style:normal;font-variant:normal;font-weight:bold;font-stretch:normal;font-size:13.33333302px;font-family:'Nimbus Sans L';-inkscape-font-specification:'Nimbus Sans L Bold';fill:#ffffff"
       d="m 103.21223,23.307151 v 7.2 h 1.86666 v -4.32 c 0,-0.853334 0.6,-1.413334 1.50667,-1.413334 0.8,0 1.2,0.44 1.2,1.293334 v 4.44 h 1.86667 v -4.826667 c 0,-1.586667 -0.88,-2.493333 -2.41334,-2.493333 -0.97333,0 -1.62666,0.36 -2.16,1.16 v -1.04 z" />
  </g>
</svg>
